<svg width="1534" height="446" viewBox="0 0 1534 446" fill="none" xmlns="http://www.w3.org/2000/svg">
<path d="M9.37573 438.12C9.37573 432.021 16.7655 426.37 20.6383 421.819C36.3056 403.407 55.1963 386.937 77.7671 375.133C88.994 369.261 100.704 365.456 111.881 373.202C121.04 379.549 130.843 385.227 139.793 391.791C149.963 399.25 156.085 412.45 165.011 421.247C168.724 424.906 173.09 429.109 175.376 433.615C177.146 437.105 179.418 425.583 180.109 424.178C198.695 386.381 228.946 346.111 268.741 322.87C286.267 312.634 324.998 304.089 342.029 319.009C357.491 332.554 365.863 351.191 371.491 369.27C375.557 382.33 376.639 397.992 383.162 410.237C385.632 414.874 390.554 418.735 394.587 422.391C396.869 424.459 397.244 426.908 398.994 428.825C399.948 429.869 403.753 440.122 404.544 440.122C407.449 440.122 421.186 416.072 422.907 413.74C449.48 377.724 475.939 341.05 505.825 307.069C522.635 287.958 553.343 248.484 587.112 262.885C598.355 267.681 614.339 275.48 620.818 285.549C625.983 293.577 630.428 301.927 635.181 310.144C642.852 323.401 652.762 336.636 656.074 351.468C659.723 367.805 663.015 384.01 668.153 400.084C670.664 407.942 676.314 417.788 676.314 425.965C676.314 427.884 676.243 436.645 678.11 437.834C686.859 443.408 715.255 398.025 716.876 395.366C746.004 347.552 758.54 293.285 790.164 246.584C797.697 235.46 802.556 229.64 817.178 229.64C834.677 229.64 857.206 226.313 873.98 231.07C889.788 235.553 908.166 244.864 914.623 259.096C920.394 271.817 921.5 285.6 924.906 298.847C929.81 317.921 933.795 337.664 940.005 356.401C944.03 368.548 952.491 383.389 952.491 396.152C952.491 404.291 961.959 412.473 966.039 419.388C969.216 424.773 974.155 430.135 976.322 435.832C976.734 436.914 978.62 442.66 978.934 440.407C981.145 424.52 988.588 408.328 993.624 393.078C1003.91 361.928 1013.82 330.641 1025.45 299.848C1033.84 277.645 1044.07 256.102 1053.85 234.359C1059.15 222.597 1062.97 208.63 1071.32 198.111C1079.11 188.306 1096.25 179.829 1108.7 175.661C1136.35 166.401 1159.68 182.364 1180.76 196.824C1201.14 210.801 1217.53 227.73 1228.51 248.3C1233.91 258.422 1240.85 269.698 1243.03 280.831C1245.84 295.192 1247.32 309.71 1250.38 324.014C1254.61 343.782 1260.12 363.53 1263.93 383.354C1265.58 391.954 1266.13 397.58 1273.39 403.945C1277.31 407.379 1279.19 408.463 1280.9 412.953C1282.13 416.186 1286.49 419.467 1287.35 422.105C1288.38 425.262 1289.83 428.639 1292.57 431.042C1294.79 432.982 1295.87 435.729 1297.39 438.12C1298.88 440.47 1299.06 437.52 1299.18 435.903C1300.69 416.368 1301.92 396.961 1304.57 377.492C1310.65 332.727 1315.22 284.939 1330.85 241.651C1336.49 226.028 1343.37 210.623 1349.62 195.18C1350.95 191.884 1352.65 185.332 1356.15 182.882C1358.69 181.101 1365.73 190.05 1366.92 191.247C1374.99 199.375 1382.28 208.044 1390.26 216.199C1395.81 221.867 1400.93 227.398 1405.28 233.787C1425.14 262.992 1438.53 295.995 1449.19 328.661C1452.14 337.709 1455.21 346.762 1456.04 356.186C1456.51 361.579 1454.79 368.919 1460.2 372.63C1471.14 380.13 1482.37 387.068 1493.5 394.293C1507.35 403.277 1508.3 418.86 1514.8 431.685C1516.16 434.356 1519.54 445.084 1519.54 443.911C1519.54 410.435 1521.47 376.984 1520.92 343.46C1520.6 323.5 1516.35 304.634 1513.66 284.977C1510.34 260.722 1513.46 236.251 1517.41 212.195C1518.85 203.476 1522.66 216.482 1525.41 219.345C1527.96 221.997 1529.01 226.454 1528.19 218.844C1525.84 197.277 1516.77 176.038 1511.21 155.071C1502.17 121.016 1494.45 87.9121 1480.12 55.2638C1477.5 49.2995 1473.23 46.5061 1483.22 49.6872C1493.85 53.0756 1511.94 58.3134 1520.68 65.2016C1522.46 66.6045 1525.6 66.5515 1528.02 67.2035C1529.33 67.5552 1530.67 67.2438 1531.94 67.5609C1532.51 67.7034 1533.48 69.6759 1533.9 69.4913C1536.28 68.4465 1495.41 32.3396 1491.71 29.0966C1486.81 24.8077 1478.81 21.8507 1473.1 18.5154C1460.21 10.9863 1446.42 7.73577 1430.99 7.07615C1424.13 6.78314 1416.52 6.17931 1410.5 9.57847C1402.43 14.138 1399.62 23.9815 1396.87 31.456C1390.9 47.7032 1387.72 64.7729 1385.04 81.6455C1383.17 93.3883 1382.97 105.128 1382.92 116.964C1382.89 122.389 1385.54 134.701 1382.02 139.842C1378.54 144.927 1340.85 114.453 1337.29 111.745C1314.22 94.1751 1296.61 70.142 1271.92 54.4774C1260.16 47.01 1248.58 48.3362 1235.36 45.8979C1225.7 44.116 1230.59 57.2241 1231.61 62.1988C1234.5 76.4271 1242.23 89.1687 1248.09 102.522C1249.37 105.438 1259.2 124.198 1255.6 123.828C1237.99 122.013 1219.49 114.138 1203.69 107.67C1175.89 96.2814 1150.12 81.2943 1123.55 67.9184C1103.44 57.7932 1082.63 46.4974 1060.38 40.3213C1047.07 36.627 1032.74 35.8899 1018.92 34.7447C1011.78 34.1527 1000.76 32.4638 994.277 36.1746C986.986 40.3473 986.828 51.6076 986.442 58.1951C984.188 96.6981 998.243 134.396 1004.23 172.301C1005.94 183.081 1007.41 193.918 1009.7 204.617C1010.34 207.587 1011.67 211.087 1011.25 214.197C1011.23 214.353 1011.09 215.079 1010.6 214.912C1004.6 212.869 997.178 206.795 992.563 203.687C968.146 187.246 944.979 169.417 921.479 151.997C897.132 133.95 871.882 112.145 840.192 104.452C831.116 102.249 805.743 98.3162 797.019 103.666C793.03 106.112 793.836 112.072 793.836 115.677C793.836 126.824 795.09 137.631 798.407 148.422C801.627 158.899 805.354 170.712 812.118 180.023C812.506 180.558 797.772 167.564 794.652 165.009C772.898 147.189 746.251 133.667 716.631 128.832C711.06 127.923 704.321 126.83 698.594 126.83C695.292 126.83 695.86 135.03 695.738 136.554C693.609 163.084 693.942 189.619 693.942 216.199C693.942 229.545 693.942 242.891 693.942 256.236C693.942 264.289 693.437 272.23 692.8 280.259C692.581 283.02 693.743 289.24 691.739 291.698C688.984 295.077 689.107 283.708 687.413 279.83C680.236 263.394 669.881 247.741 659.175 232.929C639.997 206.393 619.306 176.85 585.153 163.65C563.643 155.337 539.999 151.574 516.68 150.138C501.514 149.204 494.605 151.061 486.157 162.006C473.488 178.418 457.87 193.488 448.125 211.48C437.998 230.18 433.502 251.528 429.844 271.822C427.781 283.269 426.677 294.766 423.641 306.068C423.551 306.405 422.371 310.144 422.172 310.144C421.776 310.144 422.027 309.451 421.846 309.143C418.638 303.657 413.669 298.379 409.849 293.342C384.103 259.399 364.676 222.526 340.397 187.887C326.676 168.313 313.48 158.244 290.123 174.732C262.286 194.383 239.118 218.867 213.489 240.579C197.427 254.186 177.647 267.834 171.05 287.337C163.469 309.751 155.65 334.412 152.769 357.688C152.003 363.877 150.148 382.388 151.871 376.348C153.981 368.955 154.942 360.299 155.136 352.755C156.019 318.453 140.434 287.603 103.067 274.968C89.2087 270.282 76.9565 268.543 66.0149 278.4C45.5985 296.791 36.8148 322.526 29.126 346.606C23.5592 364.04 12.0967 378.98 6.51928 396.081C5.77936 398.349 6.43767 391.362 6.43767 389.003C6.43767 378.076 5.02672 367.913 3.58123 357.044C-0.662545 325.134 3.53744 291.18 17.3738 261.527C24.4286 246.408 33.1904 231.239 42.184 216.914C48.075 207.531 54.6155 199.534 66.9942 196.466C82.2634 192.683 100.023 192.273 114.819 197.539C127.854 202.178 135.427 210.377 144.526 219.345C145.491 220.296 156.822 231.585 157.013 231.285C160.102 226.414 157.717 215.98 157.747 210.765C157.828 196.86 158.733 183.032 160.686 169.227C164.618 141.419 184.092 119.56 205.736 99.6622C215.758 90.4485 227.929 81.7262 241.564 76.9983C256.497 71.8198 273.728 72.4995 289.47 72.9231C334.337 74.1304 405.334 80.964 418.581 127.831C424.013 147.048 425.11 168.12 425.11 187.887C425.11 202.653 427.675 181.547 428.946 177.52C436.071 154.954 457.524 137.79 476.363 122.398C490.882 110.535 509.919 93.22 531.289 92.0122C538.235 91.6197 540.234 93.5706 545.408 97.3744C555.17 104.552 564.766 112.75 575.931 118.251C579.607 120.063 584.013 121.125 587.52 123.113C597.224 128.613 602.531 142.978 613.228 146.42C619.054 148.295 640.403 112.194 643.506 108.242C654.512 94.2223 667.073 81.1218 679.497 68.0614C689.037 58.0327 702.72 41.458 719.569 39.4634C751.265 35.7112 759.722 68.6127 767.394 89.3669C770.207 96.9776 777.494 117.905 780.615 110.386C789.668 88.5781 794.216 69.1257 815.382 52.976C831.543 40.6453 854.071 29.3346 875.939 27.7382C887.437 26.8988 894.201 27.7977 901.402 35.8886C909.873 45.4067 916.384 56.0793 925.069 65.6306C933.808 75.2407 938.963 87.3608 948.737 96.3734C953.668 100.92 958.632 105.087 962.774 110.243C967.699 116.373 965.086 96.6277 964.896 94.9435C963.16 79.5143 960.915 64.0383 965.876 48.8292C969.237 38.5248 974.197 28.1729 979.668 18.5868C982.197 14.1568 984.627 8.31384 990.604 7.00465C1006.33 3.56162 1023.88 13.7865 1039.49 16.299C1066.03 20.5693 1092.5 22.3385 1118.49 29.1681C1131.58 32.6083 1144.16 37.5656 1157.01 41.6082C1162.12 43.213 1163.47 42.5724 1168.44 40.6073C1181.37 35.4951 1194.37 31.6488 1207.94 28.0242C1233.08 21.3079 1257.25 12.9872 1282.61 7.00465C1290.23 5.20802 1298.41 2 1306.45 2C1313.71 2 1319.7 16.5919 1321.71 20.5887C1328.82 34.7925 1332.7 50.4231 1340.31 64.3437C1341.7 66.8729 1345.29 75.3613 1349.46 71.0642C1354.14 66.2324 1355.59 59.0296 1358.11 53.2619C1361.75 44.9082 1366.51 36.1813 1373.78 29.7401C1386.13 18.7895 1407.45 14.4632 1424.29 13.5822C1434.11 13.0687 1445.61 12.1393 1452.7 19.3018C1459.19 25.8668 1455.83 39.4699 1466.32 42.7522C1472.07 44.5496 1476.76 44.4394 1482.08 41.6797C1484.89 40.2186 1495.82 31.5989 1486.07 31.5989C1464.97 31.5989 1451.63 55.8887 1447.06 70.7782C1437.96 100.453 1441.68 133.466 1441.68 163.793C1441.68 180.393 1440.72 195.374 1446.57 211.337C1453.77 230.964 1462.22 250.264 1471.38 269.248C1475.87 278.555 1480.28 287.277 1481.67 297.417C1486.29 331.13 1484.28 365.617 1484.28 399.512C1484.28 405.625 1485.34 412.295 1486.89 418.244C1487.34 419.977 1487.25 419.455 1486.24 418.244C1481.14 412.121 1476.37 405.781 1471.38 399.584C1447.97 370.501 1435.73 336.41 1413.52 306.712C1403.52 293.341 1393.73 278.371 1380.63 267.104C1377.84 264.699 1373.17 260.703 1368.88 262.671C1361.35 266.127 1361.22 280.88 1360.39 286.979C1358.56 300.457 1359.43 314.146 1361.86 327.517C1366.05 350.603 1375.85 372.761 1379.65 395.795C1379.76 396.429 1380.84 400.783 1379.41 399.798C1374.04 396.107 1367.8 393.369 1362.02 390.218C1348.39 382.783 1334.53 376.316 1321.38 368.055C1285.39 345.437 1250.88 321.034 1214.47 298.919C1192.65 285.666 1169.01 274.611 1147.55 260.955C1137.1 254.311 1125.66 239.057 1112.7 236.218C1101.15 233.689 1095.96 284.963 1095.15 289.41C1089.6 319.932 1090.66 353.134 1081.11 382.997C1079.66 387.546 1079.12 394.842 1078.83 399.512C1078.75 400.675 1078.87 408.095 1077.03 407.949C1072.86 407.617 1065.31 386.314 1065.04 385.714C1055.4 364.484 1047.29 342.538 1035.74 322.012C1027.59 307.538 1014.94 289.339 999.337 280.044C980.838 269.024 965.362 278.106 949.961 288.266C926.3 303.876 898.209 313.564 874.959 329.376C861.235 338.709 848.075 349.48 844.599 364.98C841.721 377.817 840.845 417.17 840.845 404.088C840.845 393.147 827.513 379.735 820.442 371.558C804.116 352.679 785.411 337.007 762.089 324.943C746.043 316.643 733.5 312.002 715.162 312.002C699.485 312.002 700.993 326.232 700.145 337.455C699.037 352.112 699.377 369.417 686.761 380.781C685.427 381.982 670.547 391.883 670.438 388.645C669.368 356.762 620.859 346.784 591.029 349.609C574.332 351.19 566.811 357.502 561.648 370.843C557.377 381.881 552.841 390.57 543.449 398.797C540.267 401.585 537.849 405.553 535.288 408.807C529.882 415.673 532.241 410.176 526.963 403.659C510.436 383.25 485.72 364.061 463.305 348.608C459.681 346.109 429.738 323.516 423.315 328.017C419.194 330.906 417.078 337.308 415.154 341.315C411.321 349.296 407.068 357.513 405.523 366.124C403.726 376.145 406.041 387.904 401.688 397.439C401.627 397.571 401.176 395.015 400.953 394.508C398.713 389.406 394.143 386.034 389.201 382.926C373.717 373.187 348.765 375.639 330.603 371.915C322.222 370.197 301.899 361.46 294.041 368.198C282.963 377.695 273.349 394.189 268.251 406.948C266.715 410.793 266.606 417.365 263.844 420.389C262.672 421.672 263.93 424.306 263.436 425.823C261.931 430.437 222.53 426.649 217.733 425.68C205.59 423.225 191.07 412.345 187.291 401.586C185.454 396.356 183.818 391.34 178.967 387.43C177.982 386.636 167.701 379.583 166.888 382.354C163.818 392.811 166.113 409.235 169.5 419.531C170.134 421.46 169.948 427.35 171.295 428.825C172.636 430.294 174.486 431.413 175.376 432.972" stroke="#817F7F" stroke-opacity="0.48" stroke-width="3" stroke-linecap="round"/>
</svg>
