<?xml version="1.0" standalone="no"?>
<!DOCTYPE svg PUBLIC "-//W3C//DTD SVG 20010904//EN"
 "http://www.w3.org/TR/2001/REC-SVG-20010904/DTD/svg10.dtd">
<svg version="1.0" xmlns="http://www.w3.org/2000/svg"
 width="595.000000pt" height="595.000000pt" viewBox="0 0 595.000000 595.000000"
 preserveAspectRatio="xMidYMid meet">
<metadata>
Created by potrace 1.14, written by Peter Selinger 2001-2017
</metadata>
<g transform="translate(0.000000,595.000000) scale(0.100000,-0.100000)"
fill="#000000" stroke="none">
<path d="M0 2975 l0 -2975 2975 0 2975 0 0 2975 0 2975 -2975 0 -2975 0 0
-2975z m2990 1940 c0 -23 3 -25 50 -25 47 0 50 -2 50 -25 0 -20 5 -25 25 -25
18 0 25 -5 25 -19 0 -15 10 -20 50 -26 39 -5 50 -11 50 -25 0 -15 10 -20 45
-26 34 -5 45 -11 45 -24 0 -14 11 -20 50 -25 40 -6 50 -11 50 -26 0 -14 7 -19
25 -19 20 0 25 -5 25 -25 0 -23 3 -25 50 -25 47 0 50 -2 50 -25 0 -23 4 -25
45 -25 41 0 45 -2 45 -25 0 -23 3 -25 50 -25 47 0 50 -2 50 -25 0 -20 5 -25
25 -25 18 0 25 -5 25 -19 0 -15 10 -20 50 -26 39 -5 50 -11 50 -25 0 -13 11
-19 45 -24 34 -6 45 -12 45 -25 0 -14 11 -20 50 -25 41 -5 50 -10 50 -26 0
-15 7 -20 25 -20 20 0 25 -5 25 -25 0 -23 3 -25 50 -25 47 0 50 -2 50 -25 0
-23 4 -25 44 -25 39 0 45 -3 48 -22 3 -20 10 -23 51 -26 42 -3 47 -5 47 -28 0
-19 5 -24 25 -24 18 0 25 -5 25 -19 0 -17 8 -20 48 -23 40 -3 47 -6 50 -25 3
-17 10 -23 28 -23 l24 0 0 -995 0 -995 -25 0 c-20 0 -25 -5 -25 -25 0 -23 -3
-25 -50 -25 -47 0 -50 -2 -50 -25 0 -20 -5 -25 -25 -25 -18 0 -25 -5 -25 -19
0 -15 -10 -20 -50 -26 -39 -5 -50 -11 -50 -25 0 -13 -11 -19 -45 -24 -34 -6
-45 -12 -45 -25 0 -14 -11 -20 -50 -25 -41 -5 -50 -10 -50 -26 0 -15 -7 -20
-25 -20 -20 0 -25 -5 -25 -25 0 -23 -3 -25 -50 -25 -47 0 -50 -2 -50 -25 0
-23 -4 -25 -44 -25 -39 0 -45 -3 -48 -22 -3 -20 -10 -23 -50 -26 -43 -3 -48
-5 -48 -28 0 -19 -5 -24 -25 -24 -18 0 -25 -5 -25 -19 0 -15 -10 -20 -50 -26
-40 -6 -50 -11 -50 -26 0 -16 -7 -19 -45 -19 l-45 0 0 70 c0 63 2 70 20 70 19
0 20 7 20 150 0 143 -1 150 -20 150 -13 0 -20 7 -20 20 0 13 7 20 19 20 15 0
20 10 26 50 l7 50 44 0 c40 0 44 2 44 25 0 23 4 25 44 25 39 0 45 3 48 23 2
16 11 23 31 25 18 2 27 9 27 22 0 13 11 19 45 24 35 6 45 11 45 26 0 14 11 20
50 25 40 6 50 11 50 26 0 14 7 19 25 19 20 0 25 5 25 25 0 20 5 25 25 25 20 0
25 5 25 25 0 18 5 25 20 25 15 0 20 7 20 25 0 18 -5 25 -20 25 -15 0 -20 7
-20 25 0 18 5 25 20 25 18 0 20 7 20 70 0 63 -2 70 -20 70 -20 0 -20 7 -20
415 0 408 0 415 20 415 19 0 20 7 20 120 0 113 -1 120 -20 120 -15 0 -20 7
-20 25 0 20 -5 25 -25 25 -20 0 -25 5 -25 25 0 20 -5 25 -25 25 -18 0 -25 5
-25 19 0 15 -10 20 -45 25 -34 6 -45 12 -45 25 0 14 -11 20 -50 25 -41 5 -50
10 -50 26 0 14 -7 20 -24 20 -18 0 -25 6 -28 23 -3 19 -10 22 -50 25 -43 3
-48 5 -48 28 0 22 -4 24 -44 24 -39 0 -45 3 -48 23 -3 19 -10 22 -50 25 -40 3
-48 6 -48 23 0 14 -7 19 -25 19 -20 0 -25 5 -25 24 0 23 -5 25 -47 28 -41 3
-48 6 -51 26 -3 19 -9 22 -48 22 -40 0 -44 2 -44 25 0 23 -3 25 -50 25 -47 0
-50 2 -50 25 0 20 -5 25 -25 25 -18 0 -25 5 -25 20 0 16 -9 21 -50 26 -39 5
-50 11 -50 24 0 12 -11 20 -35 24 -51 10 -105 -2 -105 -24 0 -13 -11 -19 -50
-24 -41 -5 -50 -10 -50 -26 0 -15 -7 -20 -25 -20 -20 0 -25 -5 -25 -25 0 -23
-3 -25 -50 -25 -47 0 -50 -2 -50 -25 0 -23 -4 -25 -44 -25 -39 0 -45 -3 -48
-22 -3 -20 -10 -23 -50 -26 -43 -3 -48 -5 -48 -28 0 -19 -5 -24 -25 -24 -18 0
-25 -5 -25 -19 0 -17 -8 -20 -47 -23 -41 -3 -48 -6 -51 -25 -3 -20 -9 -23 -48
-23 -40 0 -44 -2 -44 -25 0 -23 -3 -25 -50 -25 -47 0 -50 -2 -50 -25 0 -20 -5
-25 -25 -25 -18 0 -25 -5 -25 -19 0 -16 -9 -21 -44 -26 -36 -6 -46 -12 -48
-29 -3 -18 -11 -21 -50 -24 -39 -3 -48 -7 -48 -22 0 -13 -8 -20 -27 -22 -20
-2 -29 -9 -31 -25 -2 -15 -10 -23 -23 -23 -14 0 -19 -7 -19 -25 0 -18 -5 -25
-20 -25 -20 0 -20 -7 -20 -485 0 -478 0 -485 20 -485 19 0 20 -7 20 -195 l0
-195 25 0 c20 0 25 -5 25 -25 0 -20 5 -25 25 -25 18 0 25 -5 25 -20 0 -16 9
-21 50 -26 39 -5 50 -11 50 -25 0 -13 11 -19 45 -25 35 -5 45 -10 45 -25 0
-14 7 -19 25 -19 20 0 25 -5 25 -25 0 -23 3 -25 50 -25 47 0 50 -2 50 -25 0
-23 4 -25 44 -25 42 0 44 -1 50 -37 3 -21 6 -131 6 -245 0 -201 1 -208 20
-208 15 0 20 -7 20 -25 0 -18 -5 -25 -20 -25 -13 0 -20 -7 -20 -20 0 -15 -7
-20 -25 -20 -18 0 -25 5 -25 19 0 15 -10 20 -50 26 -40 6 -50 11 -50 26 0 14
-7 19 -25 19 -20 0 -25 5 -25 24 0 23 -5 25 -47 28 -41 3 -48 6 -51 26 -3 19
-9 22 -48 22 -40 0 -44 2 -44 25 0 23 -3 25 -50 25 -47 0 -50 2 -50 25 0 20
-5 25 -25 25 -18 0 -25 5 -25 20 0 16 -9 21 -50 26 -39 5 -50 11 -50 25 0 13
-11 19 -45 25 -34 5 -45 11 -45 24 0 14 -11 20 -50 25 -40 6 -50 11 -50 26 0
14 -7 19 -25 19 -20 0 -25 5 -25 25 0 23 -3 25 -50 25 -47 0 -50 2 -50 25 0
20 -5 25 -25 25 l-25 0 0 995 0 995 24 0 c18 0 25 6 28 23 3 19 10 22 51 25
39 3 47 6 47 23 0 14 7 19 25 19 20 0 25 5 25 24 0 23 5 25 48 28 40 3 47 6
50 26 3 19 9 22 48 22 40 0 44 2 44 25 0 23 3 25 50 25 47 0 50 2 50 25 0 20
5 25 25 25 18 0 25 5 25 19 0 15 10 20 50 26 39 5 50 11 50 25 0 15 10 20 45
26 34 5 45 11 45 24 0 14 11 20 50 25 40 6 50 11 50 26 0 14 7 19 25 19 20 0
25 5 25 25 0 23 3 25 50 25 47 0 50 2 50 25 0 23 4 25 45 25 41 0 45 2 45 25
0 23 3 25 50 25 47 0 50 2 50 25 0 20 5 25 25 25 18 0 25 5 25 19 0 15 10 20
50 26 39 5 50 11 50 25 0 13 11 19 45 24 35 6 45 11 45 26 0 13 8 20 28 22 19
2 28 9 30 26 3 19 9 22 48 22 40 0 44 2 44 25 0 23 3 25 50 25 47 0 50 2 50
25 0 18 5 25 20 25 15 0 20 -7 20 -25z m8 -922 c3 -20 9 -23 48 -23 40 0 44
-2 44 -25 0 -23 3 -25 50 -25 47 0 50 -2 50 -25 0 -23 4 -25 45 -25 41 0 45
-2 45 -25 0 -21 5 -25 30 -25 23 0 30 -5 30 -19 0 -16 9 -21 45 -27 34 -5 45
-11 45 -24 0 -14 11 -20 50 -25 40 -6 50 -11 50 -26 0 -14 7 -19 25 -19 20 0
25 -5 25 -25 0 -23 3 -25 50 -25 47 0 50 -2 50 -25 0 -23 4 -25 45 -25 41 0
45 -2 45 -25 0 -23 4 -25 44 -25 41 0 44 -2 50 -31 3 -17 6 -148 6 -290 l0
-259 -50 0 c-43 0 -50 3 -50 20 0 16 -9 21 -50 26 -39 5 -50 11 -50 25 0 13
-11 19 -45 25 -34 5 -45 11 -45 24 0 14 -11 20 -50 25 -40 6 -50 11 -50 26 0
14 -7 19 -25 19 -20 0 -25 5 -25 24 0 23 -5 25 -47 28 -41 3 -48 6 -51 26 -3
20 -8 22 -73 22 l-69 0 0 -1034 c0 -568 -3 -1047 -6 -1064 -6 -28 -10 -31 -48
-34 -33 -2 -42 -7 -44 -25 -3 -19 -11 -22 -50 -25 -40 -3 -47 -6 -50 -25 -5
-31 -39 -31 -44 -1 -3 20 -10 23 -50 26 -39 3 -47 6 -50 25 -2 18 -11 23 -45
25 -34 3 -42 7 -45 25 -2 14 -11 23 -25 25 -20 3 -23 9 -23 48 0 37 3 44 20
44 20 0 20 7 20 995 l0 995 -69 0 c-65 0 -70 -2 -73 -22 -3 -20 -10 -23 -50
-26 -43 -3 -48 -5 -48 -28 0 -22 -4 -24 -44 -24 -39 0 -45 -3 -48 -22 -2 -17
-11 -24 -30 -26 -20 -2 -28 -9 -28 -23 0 -16 -7 -19 -45 -19 -41 0 -45 -2 -45
-25 0 -23 -3 -25 -50 -25 -47 0 -50 -2 -50 -25 0 -23 -3 -25 -50 -25 l-50 0 0
259 c0 142 3 273 6 290 6 29 9 31 50 31 40 0 44 2 44 25 0 23 4 25 45 25 41 0
45 2 45 25 0 21 5 25 30 25 23 0 30 5 30 19 0 16 9 21 45 27 34 5 45 11 45 24
0 14 11 20 50 25 39 5 50 11 50 25 0 13 11 19 45 24 35 6 45 11 45 26 0 13 8
20 28 22 19 2 28 9 30 26 3 19 9 22 48 22 40 0 44 2 44 25 0 23 3 25 50 25 47
0 50 2 50 25 0 23 4 25 45 25 37 0 45 3 45 18 0 25 10 33 35 30 12 -2 21 -12
23 -25z"/>
</g>
</svg>
